# xmcd
#
# Track frame offsets:
#	150
#	10017
#	22337
#	30335
#	45132
#	53240
#	64287
#	70602
#	84017
#	95022
#	107895
#	115262
#	122837
#
# Disc length: 1769
#
# Revision: 1
# Processed by: cddbd v1.5.1PL0 Copyright (c) Steve Scherf et al.
# Submitted via: uFREEDB ActiveX Control 1.5
# Normalized: r0:TRMNUM
#
DISCID=9f06e70d
DTITLE=liocinina barreto - minhas mensagens
DYEAR=2001
DGENRE=Books and Spoken
TTITLE0=a globo
TTITLE1=festa da abadia
TTITLE2=julia
TTITLE3=o livro da minha vida
TTITLE4=medalha milagrosa
TTITLE5=mensagem de pascoa
TTITLE6=nossa senhora de fatima
TTITLE7=nossa senhora da abadia
TTITLE8=o valor que o amor tem
TTITLE9=obrigada meu senhor
TTITLE10=santissima trindade
TTITLE11=licionina barreto
TTITLE12=minha melodia (felicidade)
EXTD=
EXTT0=
EXTT1=
EXTT2=
EXTT3=
EXTT4=
EXTT5=
EXTT6=
EXTT7=
EXTT8=
EXTT9=
EXTT10=
EXTT11=
EXTT12=
PLAYORDER=
